<svg width="120" height="121" viewBox="0 0 120 121" fill="none" xmlns="http://www.w3.org/2000/svg">
<path d="M9.99976 30.5312H105C107.761 30.5312 110 32.7698 110 35.5312V105.531C110 108.293 107.761 110.531 105 110.531H14.9998C12.2383 110.531 9.99976 108.293 9.99976 105.531V30.5312Z" fill="#FFF06A"/>
<path d="M9.99976 15.5312C9.99976 12.7698 12.2383 10.5313 14.9998 10.5312H39.9998C51.0455 10.5312 59.9998 19.4856 59.9998 30.5312H9.99976V15.5312Z" fill="#EBDD60"/>
<path d="M69.9998 30.5312H64.9998C62.2383 30.5313 59.9998 32.7698 59.9998 35.5312C59.9998 38.2927 62.2383 40.5313 64.9998 40.5312H69.9998V50.5312H64.9998C62.2383 50.5313 59.9998 52.7698 59.9998 55.5312C59.9998 58.2927 62.2383 60.5313 64.9998 60.5312H69.9998V70.5312H74.9998C77.7612 70.5312 79.9998 68.2927 79.9998 65.5312C79.9998 62.7698 77.7612 60.5312 74.9998 60.5312H69.9998V50.5312H74.9998C77.7612 50.5312 79.9998 48.2927 79.9998 45.5312C79.9998 42.7698 77.7612 40.5312 74.9998 40.5312H69.9998V30.5312Z" fill="#3D3D3D"/>
<path fill-rule="evenodd" clip-rule="evenodd" d="M-0.000244141 15.5312C-0.000244141 7.24698 6.71548 0.53125 14.9998 0.53125H39.9998C53.0619 0.53125 64.1743 8.87933 68.2927 20.5312H105C113.284 20.5312 120 27.247 120 35.5312V105.531C120 113.816 113.284 120.531 105 120.531H14.9998C6.71549 120.531 -0.000244141 113.816 -0.000244141 105.531V15.5312ZM105 30.5312C107.761 30.5312 110 32.7698 110 35.5312V105.531C110 108.293 107.761 110.531 105 110.531H14.9998C12.2383 110.531 9.99976 108.293 9.99976 105.531V15.5312C9.99976 12.7698 12.2383 10.5313 14.9998 10.5312H39.9998C51.0455 10.5312 59.9998 19.4856 59.9998 30.5312H105Z" fill="#0F1020"/>
</svg>
