<svg width="105" height="125" viewBox="0 0 105 125" fill="none" xmlns="http://www.w3.org/2000/svg">
<path fill-rule="evenodd" clip-rule="evenodd" d="M46.347 95.243H66.6664C82.3145 95.243 94.9998 82.6008 94.9998 67.0058C94.9998 51.4107 82.3145 38.7685 66.6664 38.7685C66.6664 23.1735 53.9812 10.5312 38.3331 10.5312H9.99976V95.243H30.3192L22.9928 102.545L31.0067 110.531L46.347 95.243ZM55.3331 41.1181V38.7685C55.3331 29.4115 47.7219 21.8261 38.3331 21.8261H21.3331V83.9481H41.6525L43.0273 82.578C40.0607 78.114 38.3331 72.761 38.3331 67.0058C38.3331 55.4267 45.3263 45.4754 55.3331 41.1181ZM83.6664 67.0058C83.6664 76.3628 76.0553 83.9481 66.6664 83.9481C57.2776 83.9481 49.6664 76.3628 49.6664 67.0058C49.6664 57.6488 57.2776 50.0634 66.6664 50.0634C76.0553 50.0634 83.6664 57.6488 83.6664 67.0058Z" fill="#66239A"/>
<path fill-rule="evenodd" clip-rule="evenodd" d="M41.6525 83.9481L43.0273 82.578C42.5341 81.8357 42.0751 81.0689 41.6525 80.2798C40.5916 78.2983 39.7609 76.1759 39.1958 73.9481C38.6324 71.7271 38.3331 69.4012 38.3331 67.0058C38.3331 55.4267 45.3263 45.4754 55.3331 41.1181V38.7685C55.3331 29.4115 47.7219 21.8261 38.3331 21.8261H21.3331V83.9481H41.6525ZM31.3331 52.1519C34.1468 45.5022 38.7905 39.8182 44.6233 35.7215C43.4901 33.4246 41.1142 31.8261 38.3331 31.8261H31.3331V52.1519ZM9.99976 95.243V10.5312H38.3331C53.9812 10.5312 66.6664 23.1735 66.6664 38.7685C82.3145 38.7685 94.9998 51.4107 94.9998 67.0058C94.9998 82.6008 82.3145 95.243 66.6664 95.243H46.347L31.0067 110.531L22.9928 102.545L30.3192 95.243H9.99976ZM11.5342 105.243H-0.000244141V0.53125H38.3331C56.3894 0.53125 71.5678 12.9985 75.6106 29.8156C92.449 33.832 105 48.9362 105 67.0058C105 88.1556 87.8053 105.243 66.6664 105.243H50.4792L31.0067 124.649L11.5342 105.243ZM66.6664 73.9481C70.5645 73.9481 73.6664 70.8079 73.6664 67.0058C73.6664 63.2036 70.5645 60.0634 66.6664 60.0634C62.7684 60.0634 59.6664 63.2036 59.6664 67.0058C59.6664 70.8079 62.7684 73.9481 66.6664 73.9481ZM66.6664 83.9481C76.0553 83.9481 83.6664 76.3628 83.6664 67.0058C83.6664 57.6488 76.0553 50.0634 66.6664 50.0634C57.2776 50.0634 49.6664 57.6488 49.6664 67.0058C49.6664 76.3628 57.2776 83.9481 66.6664 83.9481Z" fill="#0F1020"/>
</svg>
