<svg width="180" height="121" viewBox="0 0 180 121" fill="none" xmlns="http://www.w3.org/2000/svg">
<path d="M179.452 16.353L179.436 16.4144C178.897 18.4241 178.352 20.437 177.799 22.4531C176.206 28.4144 174.706 33.7532 173.29 38.4788C172.47 41.2177 170.54 43.4173 168.057 44.616C168.77 46.5469 168.882 48.6821 168.321 50.7281L162.379 72.3905L162.375 72.4051C161.881 74.1961 160.732 77.7699 157.62 80.3202C157.598 80.3385 157.576 80.3567 157.553 80.3749C154.81 82.5841 151.674 83.302 148.98 83.302H148.3C148.132 83.302 147.965 83.2978 147.797 83.2894C147.066 83.2526 146.335 83.218 145.603 83.1854C141.356 83.4619 136.832 83.6985 132.037 83.8874C130.337 90.0838 128.65 96.2785 126.976 102.471C126.944 102.589 126.91 102.706 126.874 102.822C126.661 103.51 126.447 104.201 126.234 104.895C125.678 106.867 125.124 108.843 124.574 110.822L124.569 110.839C124.228 112.059 123.598 113.861 122.316 115.587C120.907 117.484 118.418 119.622 114.743 120.119C114.333 120.174 113.92 120.204 113.507 120.208L82.6431 120.531C79.973 120.559 77.4026 119.517 75.5046 117.639C73.8186 115.971 72.7875 113.765 72.5783 111.421L72.5739 111.399C72.5537 111.3 72.5259 111.17 72.4887 111.007C72.1427 109.486 72.1572 107.905 72.531 106.391C73.2569 103.451 73.9514 100.858 74.6146 98.6578C74.8473 97.886 75.1724 97.1451 75.5829 96.4513L75.5842 96.4492L75.5925 96.4351L75.6391 96.3557C75.6828 96.2812 75.7513 96.1638 75.8427 96.0059C76.0256 95.6899 76.3002 95.2118 76.6516 94.5892C77.3548 93.343 78.3631 91.5221 79.5585 89.2657C81.9217 84.8047 84.9806 78.7081 87.8516 72.0283C83.9648 74.7965 79.7795 76.7401 76.0663 78.0663C70.488 80.0587 65.0463 81.0677 61.0914 81.5889C59.0893 81.8527 57.4073 81.9993 56.2002 82.0806C55.5954 82.1213 55.106 82.146 54.7511 82.1607C54.5736 82.1681 54.4293 82.1731 54.3208 82.1763C54.2665 82.178 54.2211 82.1792 54.1849 82.18L54.1375 82.1811L54.104 82.1818C49.5418 82.2689 45.4993 79.2566 44.278 74.86C43.0594 70.473 44.9583 65.8181 48.8943 63.5343C48.902 63.5298 48.9223 63.5178 48.9545 63.4985C49.0239 63.4568 49.1481 63.3813 49.319 63.274C49.662 63.0585 50.1863 62.7188 50.8307 62.2692C52.1382 61.3571 53.8441 60.0592 55.5079 58.4949C58.0077 56.1444 59.5042 54.0549 60.2394 52.3956C59.607 52.0798 58.7902 51.7175 57.7573 51.3259C53.0267 49.5324 46.2323 48.0254 38.8209 46.839C31.5409 45.6736 24.1976 44.8981 18.6335 44.4137C15.8623 44.1724 13.557 44.0054 11.9525 43.8992C11.1507 43.8461 10.5253 43.8083 10.1057 43.784C9.89595 43.7719 9.73775 43.7632 9.6348 43.7576L9.52232 43.7516L9.49556 43.7502L9.49412 43.7501C4.5269 43.4983 0.499588 39.6343 0.0427143 34.6815C-0.414204 29.7283 2.83893 25.1923 7.67705 24.0366C21.7136 20.6836 43.0865 17.195 61.35 17.9573C63.1498 18.0325 64.9639 18.1501 66.7741 18.321C66.6142 18.0908 66.4635 17.853 66.3224 17.6082C64.9031 15.1441 64.5999 12.1922 65.4888 9.49101C66.4617 6.53475 68.4714 4.98172 69.153 4.49055C70.0199 3.86586 70.7964 3.51905 71.1685 3.3635C71.9434 3.03963 72.5965 2.88225 72.8312 2.82709C73.3969 2.69418 73.9008 2.62369 74.1441 2.59121C74.7159 2.51489 75.3668 2.45571 75.967 2.4078C77.2206 2.30775 78.915 2.20618 80.8462 2.10581C84.738 1.90355 89.9157 1.68979 95.1879 1.49523C105.635 1.10969 116.901 0.783139 119.406 0.783139C119.623 0.783139 119.839 0.790187 120.056 0.804273C120.335 0.822485 120.618 0.838957 120.903 0.853668H124.003L148.374 0.532121C148.469 0.530871 148.563 0.530967 148.658 0.532406C154.373 0.619312 160.091 0.70289 165.813 0.783139H167.063L167.46 0.752285C167.716 0.732559 167.972 0.722686 168.229 0.722686C169.537 0.722686 171.68 0.892918 173.909 2.03848C176.37 3.30294 178.358 5.47552 179.316 8.27648C180.551 11.7684 179.805 15.0003 179.452 16.353Z" fill="#0F1020"/>
<path d="M168.147 19.8411C168.697 17.8327 169.24 15.8276 169.776 13.826C170.034 12.8386 170.076 12.0829 169.869 11.559C169.704 11.0048 169.168 10.7227 168.229 10.7227C167.968 10.7428 167.71 10.763 167.455 10.7831H165.743C159.994 10.7025 154.248 10.6186 148.506 10.5312L124.069 10.8537H120.654C120.235 10.8335 119.819 10.81 119.406 10.7831C114.847 10.7831 75.1735 12.0527 74.9878 12.6169C74.9878 12.6169 100.663 18.0275 105.398 34.1081C111.742 55.0149 84.1891 101.544 84.1891 101.544C83.5909 103.529 82.941 105.947 82.2395 108.788C82.4458 109.695 82.5387 110.269 82.5387 110.531L113.402 110.209C114.073 110.118 114.578 109.433 114.939 108.143C115.503 106.115 116.071 104.09 116.642 102.068C116.868 101.329 117.095 100.593 117.322 99.8612C119.64 91.2903 121.981 82.716 124.347 74.1383C132.053 73.9267 139.109 73.5942 145.494 73.1711C146.429 73.2114 147.364 73.255 148.3 73.302H148.98C149.929 73.302 150.693 73.0602 151.281 72.5867C151.858 72.1131 152.343 71.166 152.735 69.7454L158.677 48.0829C157.965 47.3071 155.52 46.9242 151.353 46.9242C147.227 46.9242 140.728 47.3776 131.867 48.2844C132.177 46.8537 132.548 45.3927 132.992 43.8814C133.576 41.9872 134.157 40.093 134.735 38.1988C134.92 37.5741 135.103 36.9494 135.282 36.3247C139.236 36.2978 143.19 36.2743 147.144 36.2542C154.076 36.2542 159.605 36.0426 163.711 35.6093C165.093 30.9947 166.568 25.7454 168.147 19.8411Z" fill="#0099FF"/>
<path d="M10.0005 33.763C37.1645 27.2741 91.4925 20.6487 91.4925 46.0576C91.4925 71.4665 53.9133 72.1836 53.9133 72.1836C53.9133 72.1836 70.8028 62.4504 70.8028 50.1558C70.8028 36.8366 10.0005 33.763 10.0005 33.763Z" fill="#0099FF"/>
</svg>
