<svg width="120" height="121" viewBox="0 0 120 121" fill="none" xmlns="http://www.w3.org/2000/svg">
<path d="M110 15.5313C110 12.7698 107.761 10.5312 105 10.5312H59.9998V55.5312C59.9998 58.2927 57.7612 60.5312 54.9998 60.5312H9.99976V105.531C9.99976 108.293 12.2383 110.531 14.9998 110.531H105C107.761 110.531 110 108.293 110 105.531V15.5313Z" fill="white"/>
<path d="M54.9998 60.5312H9.99976L59.9998 10.5312V55.5312C59.9998 58.2927 57.7612 60.5312 54.9998 60.5312Z" fill="#C4C4C4"/>
<path d="M29.9998 86.0312C29.9998 84.6505 31.119 83.5312 32.4998 83.5312H87.4998C88.8805 83.5312 89.9998 84.6505 89.9998 86.0312C89.9998 87.412 88.8805 88.5312 87.4998 88.5312H32.4998C31.119 88.5312 29.9998 87.412 29.9998 86.0312Z" fill="#C4C4C4"/>
<path fill-rule="evenodd" clip-rule="evenodd" d="M55.8576 0.53125H105C113.284 0.53125 120 7.24698 120 15.5313V105.531C120 113.816 113.284 120.531 105 120.531H14.9998C6.71548 120.531 -0.000244141 113.816 -0.000244141 105.531V56.3891L55.8576 0.53125ZM59.9998 10.5312H105C107.761 10.5312 110 12.7698 110 15.5313V105.531C110 108.293 107.761 110.531 105 110.531H14.9998C12.2383 110.531 9.99976 108.293 9.99976 105.531V60.5312L59.9998 10.5312Z" fill="#0F1020"/>
</svg>
