<svg width="121" height="121" viewBox="0 0 121 121" fill="none" xmlns="http://www.w3.org/2000/svg">
<path fill-rule="evenodd" clip-rule="evenodd" d="M0.11377 15.5312C0.11377 7.24698 6.8295 0.53125 15.1138 0.53125L40.1138 0.53125C53.176 0.53125 64.2883 8.87933 68.4067 20.5312H105.114C113.398 20.5312 120.114 27.247 120.114 35.5312V105.531C120.114 113.816 113.398 120.531 105.114 120.531H15.1138C6.8295 120.531 0.11377 113.816 0.11377 105.531V15.5312ZM105.114 30.5312C107.875 30.5312 110.114 32.7698 110.114 35.5312V105.531C110.114 108.293 107.875 110.531 105.114 110.531H15.1138C12.3523 110.531 10.1138 108.293 10.1138 105.531V15.5312C10.1138 12.7698 12.3523 10.5312 15.1138 10.5312H40.1138C51.1595 10.5312 60.1138 19.4856 60.1138 30.5312H105.114Z" fill="#0F1020"/>
<path d="M10.1138 30.5312H105.114C107.875 30.5312 110.114 32.7698 110.114 35.5312V105.531C110.114 108.293 107.875 110.531 105.114 110.531H15.1138C12.3523 110.531 10.1138 108.293 10.1138 105.531V30.5312Z" fill="#FFF06A"/>
<path d="M10.1138 15.5312C10.1138 12.7698 12.3523 10.5312 15.1138 10.5312H40.1138C51.1595 10.5312 60.1138 19.4856 60.1138 30.5312H10.1138V15.5312Z" fill="#EBDD60"/>
</svg>
