<svg width="120" height="121" viewBox="0 0 120 121" fill="none" xmlns="http://www.w3.org/2000/svg">
<path fill-rule="evenodd" clip-rule="evenodd" d="M-0.000244141 15.5312C-0.000244141 7.24698 6.71549 0.53125 14.9998 0.53125H105C113.284 0.53125 120 7.24698 120 15.5312V105.531C120 113.816 113.284 120.531 105 120.531H14.9998C6.71549 120.531 -0.000244141 113.816 -0.000244141 105.531V15.5312ZM14.9998 10.5312C12.2383 10.5312 9.99976 12.7698 9.99976 15.5312V105.531C9.99976 108.293 12.2383 110.531 14.9998 110.531H105C107.761 110.531 110 108.293 110 105.531V15.5312C110 12.7698 107.761 10.5312 105 10.5312H14.9998Z" fill="#0F1020"/>
<path d="M9.99976 15.5312C9.99976 12.7698 12.2383 10.5312 14.9998 10.5312H105C107.761 10.5312 110 12.7698 110 15.5312V85.5312H9.99976V15.5312Z" fill="#499BCA"/>
<path d="M9.99976 85.5312H110V105.531C110 108.293 107.761 110.531 105 110.531H14.9998C12.2383 110.531 9.99976 108.293 9.99976 105.531V85.5312Z" fill="white"/>
<path d="M9.99976 85.5312H65.9997L41.5353 61.0668C39.5826 59.1142 36.4168 59.1142 34.4642 61.0668L9.99976 85.5312Z" fill="#82D475"/>
<path d="M36.5683 85.5312H110L76.8195 52.351C74.8669 50.3984 71.7011 50.3984 69.7485 52.351L36.5683 85.5312Z" fill="#8FED7F"/>
<path d="M61.9998 40.5312C61.9998 46.0541 57.5226 50.5312 51.9998 50.5312C46.4769 50.5313 41.9998 46.0541 41.9998 40.5312C41.9998 35.0084 46.4769 30.5313 51.9998 30.5312C57.5226 30.5312 61.9998 35.0084 61.9998 40.5312Z" fill="#FFF06A"/>
</svg>
