<svg width="121" height="121" viewBox="0 0 121 121" fill="none" xmlns="http://www.w3.org/2000/svg">
<path fill-rule="evenodd" clip-rule="evenodd" d="M58.8943 33.702C58.8943 34.3755 58.3483 34.9215 57.6747 34.9215H24.7479C16.6657 34.9215 10.1138 41.4734 10.1138 49.5556V69.0678C10.1138 77.15 16.6657 83.702 24.7479 83.702H34.504V69.0678C34.504 63.6797 38.872 59.3117 44.2601 59.3117H74.7479C79.4625 59.3117 83.2845 55.4898 83.2845 50.7752V25.1654C83.2845 17.0832 76.7326 10.5312 68.6504 10.5312H49.1382C41.0559 10.5312 34.504 17.0832 34.504 25.1654V32.4825H57.6747C58.3483 32.4825 58.8943 33.0285 58.8943 33.702Z" fill="#0099FF"/>
<path fill-rule="evenodd" clip-rule="evenodd" d="M61.3333 87.3605C61.3333 86.687 61.8793 86.141 62.5528 86.141H95.4796C103.562 86.141 110.114 79.5891 110.114 71.5069V51.9947C110.114 43.9125 103.562 37.3605 95.4796 37.3605H85.7235V51.9947C85.7235 57.3828 81.3556 61.7508 75.9674 61.7508H45.4796C40.765 61.7508 36.943 65.5727 36.943 70.2874V95.8971C36.943 103.979 43.495 110.531 51.5772 110.531H71.0894C79.1716 110.531 85.7235 103.979 85.7235 95.8971V88.58H62.5528C61.8793 88.58 61.3333 88.034 61.3333 87.3605Z" fill="#FFF970"/>
<path d="M46.6992 25.1654C48.7197 25.1654 50.3577 23.5274 50.3577 21.5069C50.3577 19.4863 48.7197 17.8483 46.6992 17.8483C44.6786 17.8483 43.0406 19.4863 43.0406 21.5069C43.0406 23.5274 44.6786 25.1654 46.6992 25.1654Z" fill="#0F1020"/>
<path d="M73.5285 103.214C75.549 103.214 77.187 101.576 77.187 99.5556C77.187 97.5351 75.549 95.8971 73.5285 95.8971C71.5079 95.8971 69.8699 97.5351 69.8699 99.5556C69.8699 101.576 71.5079 103.214 73.5285 103.214Z" fill="#0F1020"/>
<path fill-rule="evenodd" clip-rule="evenodd" d="M34.504 83.702V69.0678C34.504 63.6797 38.872 59.3117 44.2601 59.3117H74.7479C75.162 59.3117 75.5691 59.2823 75.9674 59.2253C79.7061 58.6905 82.6633 55.7333 83.1981 51.9947C83.255 51.5964 83.2845 51.1892 83.2845 50.7752V25.1654C83.2845 17.0832 76.7326 10.5312 68.6504 10.5312H49.1382C48.3072 10.5312 47.4924 10.6005 46.6992 10.7336C40.9837 11.6924 36.3916 15.9642 34.965 21.5069C34.8824 21.8279 34.8104 22.1533 34.7494 22.4825C34.6026 23.2749 34.5196 24.0898 34.506 24.9215C34.5047 25.0026 34.504 25.0839 34.504 25.1654V32.4825H57.6747C58.3483 32.4825 58.8943 33.0285 58.8943 33.702C58.8943 34.3755 58.3483 34.9215 57.6747 34.9215H24.7479C24.6665 34.9215 24.5852 34.9222 24.504 34.9235C16.5343 35.0537 10.1138 41.5549 10.1138 49.5556V69.0678C10.1138 77.0686 16.5343 83.5698 24.504 83.7C24.5852 83.7013 24.6665 83.702 24.7479 83.702H34.504ZM24.5052 24.9227C11.0119 25.0529 0.11377 36.0316 0.11377 49.5556V69.0678C0.11377 82.6729 11.1428 93.702 24.7479 93.702H26.943V95.8971C26.943 109.502 37.9721 120.531 51.5772 120.531H71.0894C84.6135 120.531 95.5921 109.633 95.7224 96.1398C109.216 96.0096 120.114 85.0309 120.114 71.5069V51.9947C120.114 38.3896 109.085 27.3605 95.4796 27.3605H93.2845V25.1654C93.2845 11.5603 82.2554 0.53125 68.6504 0.53125H49.1382C35.6141 0.53125 24.6354 11.4294 24.5052 24.9227ZM85.7235 37.3605V51.9947C85.7235 57.3828 81.3556 61.7508 75.9674 61.7508H45.4796C45.0656 61.7508 44.6584 61.7802 44.2601 61.8372C40.5215 62.372 37.5643 65.3292 37.0295 69.0678C36.9725 69.4661 36.943 69.8733 36.943 70.2874V95.8971C36.943 103.979 43.495 110.531 51.5772 110.531H71.0894C71.9204 110.531 72.7352 110.462 73.5285 110.329C79.2439 109.37 83.8359 105.098 85.2625 99.5556C85.3451 99.2346 85.4171 98.9092 85.4781 98.58C85.625 97.7876 85.7079 96.9727 85.7215 96.141C85.7229 96.0599 85.7235 95.9786 85.7235 95.8971V88.58H62.5528C61.8793 88.58 61.3333 88.034 61.3333 87.3605C61.3333 86.687 61.8793 86.141 62.5528 86.141H95.4796C95.5611 86.141 95.6424 86.1403 95.7235 86.139C103.693 86.0088 110.114 79.5076 110.114 71.5069V51.9947C110.114 43.9939 103.693 37.4927 95.7235 37.3625C95.6424 37.3612 95.5611 37.3605 95.4796 37.3605H85.7235Z" fill="#0F1020"/>
</svg>
