<svg width="296" height="48" viewBox="0 0 296 48" fill="none" xmlns="http://www.w3.org/2000/svg">
<path fill-rule="evenodd" clip-rule="evenodd" d="M24 40C32.8365 40 40 32.8365 40 24C40 15.1634 32.8365 8 24 8C15.1634 8 8 15.1634 8 24C8 32.8365 15.1634 40 24 40ZM24 48C37.2548 48 48 37.2548 48 24C48 10.7452 37.2548 0 24 0C10.7452 0 0 10.7452 0 24C0 37.2548 10.7452 48 24 48Z" fill="#F9E9FF"/>
<path fill-rule="evenodd" clip-rule="evenodd" d="M112 40C116.418 40 120 36.4183 120 32C120 27.5817 116.418 24 112 24C107.582 24 104 27.5817 104 32C104 36.4183 107.582 40 112 40ZM112 48C120.837 48 128 40.8365 128 32C128 23.1634 120.837 16 112 16C103.163 16 96 23.1634 96 32C96 40.8365 103.163 48 112 48Z" fill="#F9E9FF"/>
<path fill-rule="evenodd" clip-rule="evenodd" d="M217.561 24.1537C216.009 23.845 214.4 24.0035 212.938 24.609C211.477 25.2145 210.227 26.2398 209.348 27.5554C208.469 28.871 208 30.4177 208 32C208 33.5822 208.469 35.129 209.348 36.4446C210.227 37.7602 211.477 38.7855 212.938 39.391C214.4 39.9965 216.009 40.155 217.561 39.8463C219.113 39.5376 220.538 38.7757 221.657 37.6568L227.314 43.3137C225.076 45.5513 222.225 47.0752 219.121 47.6926C216.018 48.3099 212.801 47.9931 209.877 46.7821C206.953 45.5711 204.455 43.5203 202.696 40.8891C200.938 38.2579 200 35.1645 200 32C200 28.8355 200.938 25.7421 202.696 23.1109C204.455 20.4797 206.953 18.4289 209.877 17.2179C212.801 16.0069 216.018 15.6901 219.121 16.3074C222.225 16.9248 225.076 18.4487 227.314 20.6863L221.657 26.3431C220.538 25.2243 219.113 24.4624 217.561 24.1537Z" fill="#F9E9FF"/>
<path d="M192 20C192 22.2091 190.209 24 188 24C185.791 24 184 22.2091 184 20C184 17.7909 185.791 16 188 16C190.209 16 192 17.7909 192 20Z" fill="#F9E9FF"/>
<path d="M184 32H192V48H184V32Z" fill="#F9E9FF"/>
<path d="M288 0H296V48H288V0Z" fill="#F9E9FF"/>
<path d="M240 20C240 22.2091 238.209 24 236 24C233.791 24 232 22.2091 232 20C232 17.7909 233.791 16 236 16C238.209 16 240 17.7909 240 20Z" fill="#F9E9FF"/>
<path d="M232 32H240V48H232V32Z" fill="#F9E9FF"/>
<path d="M152 8C149.878 8 147.843 8.84285 146.343 10.3431C144.843 11.8434 144 13.8783 144 16V32H152V40H144V48H136V16C136 11.7565 137.686 7.68687 140.686 4.68629C143.687 1.68571 147.756 0 152 0V8Z" fill="#F9E9FF"/>
<path d="M176 8C173.878 8 171.843 8.84285 170.343 10.3431C168.843 11.8434 168 13.8783 168 16V32H176V40H168V48H160V16C160 11.7565 161.686 7.68687 164.686 4.68629C167.687 1.68571 171.756 0 176 0V8Z" fill="#F9E9FF"/>
<path d="M72 24C69.8782 24 67.8434 24.8428 66.3431 26.3431C64.8428 27.8434 64 29.8783 64 32V48H56V32C56 27.7565 57.6857 23.6869 60.6863 20.6863C63.6869 17.6857 67.7565 16 72 16C76.2434 16 80.3131 17.6857 83.3137 20.6863C86.3143 23.6869 88 27.7565 88 32V48H80V32C80 29.8783 79.1571 27.8434 77.6568 26.3431C76.1565 24.8428 74.1217 24 72 24Z" fill="#F9E9FF"/>
<path fill-rule="evenodd" clip-rule="evenodd" d="M264 48V40L280 39.9995V32C280 28.8355 279.062 25.7421 277.303 23.1109C275.545 20.4797 273.046 18.4289 270.123 17.2179C267.199 16.0069 263.982 15.6901 260.878 16.3074C257.775 16.9248 254.924 18.4487 252.686 20.6863C250.449 22.9239 248.925 25.7749 248.307 28.8786C247.69 31.9823 248.007 35.1993 249.218 38.1229C250.429 41.0466 252.48 43.5454 255.111 45.3035C257.742 47.0616 260.835 48 264 48ZM271.391 28.9385C271.793 29.9091 272 30.9494 272 32H256C256 30.9494 256.207 29.9091 256.609 28.9385C257.011 27.9679 257.6 27.086 258.343 26.3431C259.086 25.6003 259.968 25.011 260.938 24.609C261.909 24.2069 262.949 24 264 24C265.05 24 266.091 24.2069 267.061 24.609C268.032 25.011 268.914 25.6003 269.657 26.3431C270.4 27.086 270.989 27.9679 271.391 28.9385Z" fill="#F9E9FF"/>
</svg>
