<svg width="408" height="100" viewBox="0 0 408 100" fill="none" xmlns="http://www.w3.org/2000/svg">
<path fill-rule="evenodd" clip-rule="evenodd" d="M53.3333 46.6667V33.3333C53.3333 22.2876 44.379 13.3333 33.3333 13.3333H13.3333V86.6667H66.6667C77.7124 86.6667 86.6667 77.7124 86.6667 66.6667C86.6667 55.621 77.7124 46.6667 66.6667 46.6667H53.3333ZM33.3333 0C51.7428 0 66.6667 14.9238 66.6667 33.3333C85.0762 33.3333 100 48.2572 100 66.6667C100 85.0762 85.0762 100 66.6667 100H0V0H33.3333Z" fill="#FFE5FB"/>
<path fill-rule="evenodd" clip-rule="evenodd" d="M120 66.6666C120 77.7123 128.954 86.6666 140 86.6666C151.046 86.6666 160 77.7123 160 66.6666C160 55.6209 151.046 46.6666 140 46.6666C128.954 46.6666 120 55.6209 120 66.6666ZM140 33.3333C121.59 33.3333 106.667 48.2571 106.667 66.6666C106.667 85.0761 121.59 99.9999 140 99.9999C158.409 99.9999 173.333 85.0761 173.333 66.6666C173.333 48.2571 158.409 33.3333 140 33.3333Z" fill="#FFE5FB"/>
<path fill-rule="evenodd" clip-rule="evenodd" d="M180 69.9999C180 49.6121 196.854 33.3333 217.333 33.3333V46.6666C203.94 46.6666 193.333 57.2506 193.333 69.9999V99.9999H180V69.9999Z" fill="#FFE5FB"/>
<path fill-rule="evenodd" clip-rule="evenodd" d="M370.667 69.9999C370.667 49.6121 387.52 33.3333 408 33.3333V46.6666C394.606 46.6666 384 57.2506 384 69.9999V99.9999H370.667V69.9999Z" fill="#FFE5FB"/>
<path fill-rule="evenodd" clip-rule="evenodd" d="M290.667 68V0H277.333L277.333 39.9976C271.762 35.813 264.837 33.3333 257.333 33.3333C238.924 33.3333 224 48.2572 224 66.6667C224 85.0762 238.924 100 257.333 100C275.296 100 289.941 85.7914 290.64 68H290.667ZM277.333 66.6667C277.333 77.7124 268.379 86.6667 257.333 86.6667C246.288 86.6667 237.333 77.7124 237.333 66.6667C237.333 55.621 246.288 46.6667 257.333 46.6667C268.379 46.6667 277.333 55.621 277.333 66.6667Z" fill="#FFE5FB"/>
<path fill-rule="evenodd" clip-rule="evenodd" d="M311.805 73.3332C314.55 81.1012 321.959 86.6666 330.667 86.6666V99.9999C312.257 99.9999 297.333 85.0761 297.333 66.6666C297.333 48.2571 312.257 33.3333 330.667 33.3333C349.076 33.3333 364 48.2571 364 66.6666C364 68.9497 363.77 71.1792 363.333 73.3332H311.805ZM311.805 59.9999C314.55 52.232 321.959 46.6666 330.667 46.6666C339.375 46.6666 346.783 52.232 349.529 59.9999H311.805Z" fill="#FFE5FB"/>
</svg>
