<svg width="14" height="14" viewBox="0 0 14 14" fill="none" xmlns="http://www.w3.org/2000/svg">
<g clip-path="url(#clip0_779_26)">
<path d="M2.8 2.8H0V5.6C1.5464 5.6 2.8 6.8536 2.8 8.4C2.8 9.94639 1.5464 11.2 0 11.2V14L2.8 14C2.8 12.4536 4.0536 11.2 5.6 11.2C7.1464 11.2 8.4 12.4536 8.4 14L11.2 14V11.2C12.7464 11.2 14 9.9464 14 8.4C14 6.8536 12.7464 5.6 11.2 5.6V2.8H8.4C8.4 1.2536 7.1464 0 5.6 0C4.0536 0 2.8 1.2536 2.8 2.8Z" fill="#781FA2"/>
</g>
<defs>
<clipPath id="clip0_779_26">
<rect width="14" height="14" fill="white"/>
</clipPath>
</defs>
</svg>
