<svg width="14" height="14" viewBox="0 0 14 14" fill="none" xmlns="http://www.w3.org/2000/svg">
<path d="M5.09094 12.1739C5.09094 11.1654 5.94567 10.3478 7.00003 10.3478C8.0544 10.3478 8.90912 11.1654 8.90912 12.1739C8.90912 13.1824 8.0544 14 7.00003 14C5.94567 14 5.09094 13.1824 5.09094 12.1739Z" fill="#781FA2"/>
<path d="M5.09094 7C5.09094 5.99148 5.94567 5.17391 7.00003 5.17391C8.0544 5.17391 8.90912 5.99148 8.90912 7C8.90912 8.00852 8.0544 8.82609 7.00003 8.82609C5.94567 8.82609 5.09094 8.00852 5.09094 7Z" fill="#781FA2"/>
<path d="M5.09094 1.82609C5.09094 0.817567 5.94567 0 7.00003 0C8.0544 0 8.90912 0.817567 8.90912 1.82609C8.90912 2.83461 8.0544 3.65217 7.00003 3.65217C5.94567 3.65217 5.09094 2.83461 5.09094 1.82609Z" fill="#781FA2"/>
</svg>
