<svg width="14" height="14" viewBox="0 0 14 14" fill="none" xmlns="http://www.w3.org/2000/svg">
<g clip-path="url(#clip0_779_16)">
<path d="M14.0469 6.22222V0L11.9966 2.05025C11.0177 1.07129 9.77037 0.404603 8.4125 0.134506C7.05464 -0.13559 5.64717 0.00303333 4.36809 0.532846C3.08901 1.06266 1.99576 1.95987 1.22659 3.11101C0.457418 4.26215 0.046875 5.61553 0.046875 7C0.046875 8.38447 0.457418 9.73784 1.22659 10.889C1.99576 12.0401 3.08901 12.9373 4.36809 13.4671C5.64717 13.997 7.05464 14.1356 8.4125 13.8655C9.77037 13.5954 11.0177 12.9287 11.9966 11.9497L9.79673 9.74986C9.25286 10.2937 8.55993 10.6641 7.80556 10.8142C7.05118 10.9642 6.26926 10.8872 5.55866 10.5929C4.84806 10.2985 4.2407 9.80007 3.81338 9.16055C3.38606 8.52102 3.15798 7.76915 3.15798 7C3.15798 6.23085 3.38606 5.47897 3.81338 4.83945C4.2407 4.19992 4.84806 3.70148 5.55866 3.40714C6.26926 3.1128 7.05119 3.03578 7.80556 3.18584C8.55993 3.33589 9.25286 3.70627 9.79673 4.25014L7.82465 6.22222H14.0469Z" fill="#781FA2"/>
</g>
<defs>
<clipPath id="clip0_779_16">
<rect width="14" height="14" fill="white"/>
</clipPath>
</defs>
</svg>
