<svg width="444" height="152" viewBox="0 0 444 152" fill="none" xmlns="http://www.w3.org/2000/svg">
<path fill-rule="evenodd" clip-rule="evenodd" d="M100 10H50C27.9086 10 10 27.9086 10 50C10 72.0914 27.9086 90 50 90H100C122.091 90 140 72.0914 140 50C140 27.9086 122.091 10 100 10ZM50 0C22.3858 0 0 22.3858 0 50C0 77.6142 22.3858 100 50 100H100C127.614 100 150 77.6142 150 50C150 22.3858 127.614 0 100 0H50Z" fill="#0F1020"/>
<path fill-rule="evenodd" clip-rule="evenodd" d="M100 30C88.9543 30 80 38.9543 80 50C80 61.0457 88.9543 70 100 70C111.046 70 120 61.0457 120 50C120 38.9543 111.046 30 100 30ZM100 20C83.4315 20 70 33.4315 70 50C70 66.5685 83.4315 80 100 80C116.569 80 130 66.5685 130 50C130 33.4315 116.569 20 100 20Z" fill="#0F1020"/>
<path fill-rule="evenodd" clip-rule="evenodd" d="M213 60C213 65.5228 217.477 70 223 70C228.523 70 233 65.5228 233 60C233 54.4772 228.523 50 223 50C217.477 50 213 54.4772 213 60ZM223 40C211.954 40 203 48.9543 203 60C203 71.0457 211.954 80 223 80C234.046 80 243 71.0457 243 60C243 48.9543 234.046 40 223 40Z" fill="#0F1020"/>
<path d="M185 60V80H195V60C195 48.9543 186.046 40 175 40C163.954 40 155 48.9543 155 60V80H165V60C165 54.4772 169.477 50 175 50C180.523 50 185 54.4772 185 60Z" fill="#0F1020"/>
<path d="M267.173 30.7612C268.386 30.2587 269.687 30 271 30V20C268.374 20 265.773 20.5173 263.346 21.5224C260.92 22.5275 258.715 24.0007 256.858 25.8579C255.001 27.715 253.528 29.9198 252.522 32.3463C251.517 34.7728 251 37.3736 251 40V80H261V65H271V55H261V40C261 38.6868 261.259 37.3864 261.761 36.1732C262.264 34.9599 263 33.8575 263.929 32.9289C264.858 32.0003 265.96 31.2638 267.173 30.7612Z" fill="#0F1020"/>
<path d="M295.173 30.7612C296.386 30.2587 297.687 30 299 30V20C296.374 20 293.773 20.5173 291.346 21.5224C288.92 22.5275 286.715 24.0007 284.858 25.8579C283.001 27.715 281.528 29.9198 280.522 32.3463C279.517 34.7728 279 37.3736 279 40V80H289V65H299V55H289V40C289 38.6868 289.259 37.3864 289.761 36.1732C290.264 34.9599 291 33.8575 291.929 32.9289C292.858 32.0003 293.96 31.2638 295.173 30.7612Z" fill="#0F1020"/>
<path d="M307 55H317V80H307V55Z" fill="#0F1020"/>
<path d="M307 40C307 37.2386 309.239 35 312 35C314.761 35 317 37.2386 317 40C317 42.7614 314.761 45 312 45C309.239 45 307 42.7614 307 40Z" fill="#0F1020"/>
<path d="M367.142 55H377.142V80H367.142V55Z" fill="#0F1020"/>
<path d="M367.142 40C367.142 37.2386 369.381 35 372.142 35C374.904 35 377.142 37.2386 377.142 40C377.142 42.7614 374.904 45 372.142 45C369.381 45 367.142 42.7614 367.142 40Z" fill="#0F1020"/>
<path fill-rule="evenodd" clip-rule="evenodd" d="M346.951 50.1922C345.011 49.8063 343 50.0043 341.173 50.7612C339.346 51.5181 337.784 52.7998 336.685 54.4443C335.586 56.0888 335 58.0222 335 60C335 61.9778 335.586 63.9112 336.685 65.5557C337.784 67.2002 339.346 68.4819 341.173 69.2388C343 69.9957 345.011 70.1937 346.951 69.8079C348.891 69.422 350.673 68.4696 352.071 67.0711L359.142 74.1421C356.345 76.9392 352.781 78.844 348.902 79.6157C345.022 80.3874 341.001 79.9914 337.346 78.4776C333.692 76.9638 330.568 74.4004 328.371 71.1114C326.173 67.8224 325 63.9556 325 60C325 56.0444 326.173 52.1776 328.371 48.8886C330.568 45.5996 333.692 43.0362 337.346 41.5224C341.001 40.0087 345.022 39.6126 348.902 40.3843C352.781 41.156 356.345 43.0608 359.142 45.8579L352.071 52.9289C350.673 51.5304 348.891 50.578 346.951 50.1922Z" fill="#0F1020"/>
<path fill-rule="evenodd" clip-rule="evenodd" d="M396.482 65C397.246 66.3234 398.306 67.4594 399.586 68.3147C401.231 69.4136 403.164 70 405.142 70V80C401.187 80 397.32 78.8271 394.031 76.6294C390.742 74.4318 388.178 71.3083 386.665 67.6537C385.151 63.9992 384.755 59.9778 385.526 56.0982C386.298 52.2187 388.203 48.6549 391 45.8579C393.797 43.0608 397.361 41.156 401.24 40.3843C405.12 39.6126 409.141 40.0087 412.796 41.5225C416.45 43.0362 419.574 45.5996 421.772 48.8886C423.969 52.1776 425.142 56.0445 425.142 60V65H396.482ZM408.969 50.7613C410.796 51.5181 412.358 52.7998 413.457 54.4444C413.578 54.6261 413.693 54.8116 413.802 55H396.482C396.917 54.2472 397.45 53.5503 398.071 52.929C399.47 51.5304 401.252 50.578 403.191 50.1922C405.131 49.8063 407.142 50.0044 408.969 50.7613Z" fill="#0F1020"/>
<rect x="433.142" y="20" width="10" height="60" fill="#0F1020"/>
<path fill-rule="evenodd" clip-rule="evenodd" d="M360.865 134.227C361.394 135.143 362.128 135.929 363.014 136.521C364.152 137.282 365.49 137.688 366.859 137.688V144.609C364.121 144.609 361.445 143.797 359.168 142.276C356.892 140.755 355.117 138.593 354.069 136.063C353.022 133.534 352.747 130.75 353.282 128.065C353.816 125.379 355.134 122.913 357.07 120.977C359.007 119.041 361.473 117.722 364.159 117.188C366.844 116.654 369.628 116.928 372.157 117.976C374.687 119.023 376.849 120.798 378.37 123.074C379.891 125.351 380.703 128.028 380.703 130.766V134.227H360.865ZM369.508 124.371C370.773 124.895 371.854 125.782 372.615 126.92C372.699 127.046 372.778 127.174 372.854 127.305H360.865C361.166 126.784 361.535 126.301 361.965 125.871C362.933 124.903 364.166 124.244 365.509 123.977C366.852 123.71 368.243 123.847 369.508 124.371Z" fill="#0F1020"/>
<path fill-rule="evenodd" clip-rule="evenodd" d="M117.672 130.766C117.672 134.588 120.771 137.688 124.594 137.688C128.417 137.688 131.516 134.588 131.516 130.766C131.516 126.943 128.417 123.844 124.594 123.844C120.771 123.844 117.672 126.943 117.672 130.766ZM124.594 116.922C116.948 116.922 110.75 123.12 110.75 130.766C110.75 138.411 116.948 144.609 124.594 144.609C132.239 144.609 138.438 138.411 138.438 130.766C138.438 123.12 132.239 116.922 124.594 116.922Z" fill="#0F1020"/>
<path fill-rule="evenodd" clip-rule="evenodd" d="M422.234 130.766C422.234 134.588 425.333 137.688 429.156 137.688C432.979 137.688 436.078 134.588 436.078 130.766C436.078 126.943 432.979 123.844 429.156 123.844C425.333 123.844 422.234 126.943 422.234 130.766ZM429.156 116.922C421.511 116.922 415.312 123.12 415.312 130.766C415.312 138.411 421.511 144.609 429.156 144.609C436.802 144.609 443 138.411 443 130.766C443 123.12 436.802 116.922 429.156 116.922Z" fill="#0F1020"/>
<path d="M69.2188 130.766V144.609H76.1406V130.766C76.1406 123.12 69.9426 116.922 62.2969 116.922C54.6512 116.922 48.4531 123.12 48.4531 130.766V144.609H55.375V130.766C55.375 126.943 58.474 123.844 62.2969 123.844C66.1197 123.844 69.2188 126.943 69.2188 130.766Z" fill="#0F1020"/>
<path d="M0 110H6.92188V137.688C8.75754 137.688 10.5184 136.958 11.8163 135.66C13.1146 134.362 13.8438 132.602 13.8438 130.766H20.7656V137.094C20.938 137.033 21.1087 136.967 21.2781 136.897C22.5379 136.375 23.6824 135.611 24.6465 134.647C25.6106 133.682 26.3753 132.538 26.897 131.278C27.4188 130.018 27.6875 128.668 27.6875 127.305V110H34.6094V127.305C34.6094 129.577 34.162 131.827 33.2921 133.927C32.4226 136.026 31.148 137.934 29.5409 139.541C27.9342 141.148 26.0263 142.422 23.927 143.292C21.8273 144.162 19.5772 144.609 17.3047 144.609H13.8438V142.755C11.7571 143.959 9.37309 144.609 6.92188 144.609H0V110Z" fill="#0F1020"/>
<path d="M141.898 116.922H148.82V137.688C150.656 137.688 152.417 136.958 153.715 135.66C155.013 134.362 155.742 132.602 155.742 130.766H162.664V137.094C162.836 137.033 163.007 136.967 163.177 136.897C164.436 136.375 165.581 135.611 166.545 134.647C167.509 133.682 168.274 132.538 168.795 131.278C169.317 130.018 169.586 128.668 169.586 127.305V116.922H176.508V127.305C176.508 129.577 176.06 131.827 175.191 133.927C174.321 136.026 173.046 137.934 171.439 139.541C169.833 141.148 167.925 142.422 165.825 143.292C163.726 144.162 161.476 144.609 159.203 144.609H155.742V142.755C153.656 143.959 151.272 144.609 148.82 144.609H141.898V116.922Z" fill="#0F1020"/>
<path fill-rule="evenodd" clip-rule="evenodd" d="M235.344 135.835V144.609H242.266V123.844C242.266 116.198 236.068 110 228.422 110C220.776 110 214.578 116.198 214.578 123.844C214.578 131.489 220.776 137.688 228.422 137.688C230.943 137.688 233.308 137.013 235.344 135.835ZM235.344 123.844C235.344 127.667 232.245 130.766 228.422 130.766C224.599 130.766 221.5 127.667 221.5 123.844C221.5 120.021 224.599 116.922 228.422 116.922C232.245 116.922 235.344 120.021 235.344 123.844Z" fill="#0F1020"/>
<path fill-rule="evenodd" clip-rule="evenodd" d="M107.289 110H100.367V118.774C98.3308 117.596 95.9667 116.922 93.4453 116.922C85.7997 116.922 79.6016 123.12 79.6016 130.766C79.6016 138.411 85.7997 144.609 93.4453 144.609C95.9667 144.609 98.3308 143.935 100.367 142.757V144.609H107.289V110ZM100.367 130.766C100.367 126.943 97.2683 123.844 93.4453 123.844C89.6223 123.844 86.5234 126.943 86.5234 130.766C86.5234 134.588 89.6223 137.688 93.4453 137.688C97.2683 137.688 100.367 134.588 100.367 130.766Z" fill="#0F1020"/>
<path fill-rule="evenodd" clip-rule="evenodd" d="M384.164 151.531H391.086V142.757C393.122 143.935 395.486 144.609 398.008 144.609C405.653 144.609 411.852 138.411 411.852 130.766C411.852 123.12 405.653 116.922 398.008 116.922C395.486 116.922 393.122 117.596 391.086 118.774V116.922H384.164V151.531ZM391.086 130.766C391.086 134.588 394.185 137.687 398.008 137.687C401.831 137.687 404.93 134.588 404.93 130.766C404.93 126.943 401.831 123.844 398.008 123.844C394.185 123.844 391.086 126.943 391.086 130.766Z" fill="#0F1020"/>
<path fill-rule="evenodd" clip-rule="evenodd" d="M245.727 110V130.766C245.727 138.411 251.925 144.609 259.57 144.609C267.216 144.609 273.414 138.411 273.414 130.766C273.414 123.12 267.216 116.922 259.57 116.922C257.049 116.922 254.685 117.596 252.648 118.774L252.648 110H245.727ZM252.648 130.76C252.648 130.758 252.648 130.762 252.648 130.76C252.648 134.583 255.747 137.688 259.57 137.688C263.393 137.688 266.492 134.588 266.492 130.766C266.492 126.943 263.393 123.844 259.57 123.844C255.749 123.844 252.651 126.94 252.648 130.76Z" fill="#0F1020"/>
<path fill-rule="evenodd" clip-rule="evenodd" d="M44.9922 144.609V127.363H38.0703V144.609H44.9922Z" fill="#0F1020"/>
<path d="M41.5312 120.441C43.4425 120.441 44.9922 118.892 44.9922 116.981C44.9922 115.069 43.4425 113.52 41.5312 113.52C39.62 113.52 38.0703 115.069 38.0703 116.981C38.0703 118.892 39.62 120.441 41.5312 120.441Z" fill="#0F1020"/>
<path d="M200.734 116.922H193.812C190.141 116.922 186.62 118.38 184.023 120.977C181.427 123.573 179.969 127.094 179.969 130.766V134.227H199.807C199.507 134.746 199.138 135.229 198.707 135.66C197.409 136.958 195.648 137.688 193.812 137.688H186.891V144.609H193.812C197.484 144.609 201.005 143.151 203.602 140.555C206.198 137.958 207.656 134.437 207.656 130.766V127.305H187.818C188.118 126.785 188.487 126.303 188.918 125.871C190.216 124.573 191.977 123.844 193.812 123.844H200.734V116.922Z" fill="#0F1020"/>
<path d="M276.875 110H283.797V123.844H276.875V110Z" fill="#0F1020"/>
<path d="M308.023 116.922H301.102C297.43 116.922 293.909 118.38 291.313 120.977C288.716 123.573 287.258 127.094 287.258 130.766V134.227H307.096C306.796 134.746 306.428 135.229 305.996 135.66C304.698 136.958 302.937 137.688 301.102 137.688H294.18V144.609H301.102C304.773 144.609 308.294 143.151 310.891 140.555C313.487 137.958 314.945 134.437 314.945 130.766V127.305H295.107C295.407 126.785 295.776 126.303 296.207 125.871C297.505 124.573 299.266 123.844 301.102 123.844H308.023V116.922Z" fill="#0F1020"/>
<path d="M349.555 123.844C348.646 123.844 347.746 124.023 346.906 124.371C346.066 124.719 345.303 125.228 344.66 125.871C344.017 126.514 343.508 127.277 343.16 128.117C342.812 128.957 342.633 129.857 342.633 130.766V144.609H335.711V130.766C335.711 128.948 336.069 127.147 336.765 125.468C337.46 123.788 338.48 122.262 339.766 120.977C341.051 119.691 342.577 118.671 344.257 117.976C345.937 117.28 347.737 116.922 349.555 116.922V123.844Z" fill="#0F1020"/>
</svg>
