<svg width="128" height="128" viewBox="0 0 128 128" fill="none" xmlns="http://www.w3.org/2000/svg">
<path fill-rule="evenodd" clip-rule="evenodd" d="M64 0C99.3457 0 128 28.6533 128 64C128 99.3467 99.3457 128 64 128C28.6543 128 0 99.3467 0 64C0 28.6533 28.6543 0 64 0ZM64 120C68.1738 120 74.1055 116.408 79.4727 105.677C81.9453 100.731 84.0156 94.7461 85.498 88H42.502C43.9844 94.7461 46.0547 100.731 48.5273 105.677C53.8945 116.408 59.8262 120 64 120ZM41.0781 80C40.3789 74.9502 40 69.5859 40 64C40 58.4141 40.3789 53.0498 41.0781 48H86.9219C87.2754 50.5469 87.5469 53.1748 87.7285 55.8701C87.9062 58.5176 88 61.2314 88 64C88 69.5859 87.6211 74.9502 86.9219 80H41.0781ZM93.6738 88C91.2676 99.8887 87.127 110.002 81.8809 117.085C96.3281 112.221 108.139 101.624 114.611 88H93.6738ZM117.682 80H94.9922C95.6504 74.8857 96 69.5244 96 64C96 58.4756 95.6504 53.1143 94.9922 48H117.682C119.191 53.0693 120 58.4404 120 64C120 69.5596 119.191 74.9307 117.682 80ZM33.0078 80H10.3184C8.80859 74.9307 8 69.5596 8 64C8 58.4404 8.80859 53.0693 10.3184 48H33.0078C32.3496 53.1143 32 58.4756 32 64C32 69.5244 32.3496 74.8857 33.0078 80ZM13.3887 88H34.3262C36.7324 99.8887 40.875 110.002 46.1211 117.085C31.6738 112.221 19.8613 101.624 13.3887 88ZM42.502 40H85.498C84.0156 33.2539 81.9453 27.2686 79.4727 22.3232C74.1055 11.5918 68.1738 8 64 8C59.8262 8 53.8945 11.5918 48.5273 22.3232C46.0547 27.2686 43.9844 33.2539 42.502 40ZM93.6738 40H114.611C108.139 26.376 96.3281 15.7793 81.8809 10.915C87.127 17.998 91.2676 28.1113 93.6738 40ZM46.1211 10.915C40.875 17.998 36.7324 28.1113 34.3262 40H13.3887C19.8613 26.376 31.6738 15.7793 46.1211 10.915Z" fill="#676767"/>
</svg>
